<svg width="13" height="12" viewBox="0 0 13 12" fill="none" xmlns="http://www.w3.org/2000/svg">
<path d="M6.3125 11.7491C6 11.7491 5.625 11.6245 5.375 11.3755C1.3125 7.82649 1.25 7.76422 1.25 7.70196L1.1875 7.6397C0.437499 6.89254 0 5.83407 0 4.7756V4.65107C0.0625 2.40961 1.875 0.666245 4.125 0.666245C4.8125 0.666245 5.75 1.03982 6.3125 1.78698C6.875 1.03982 7.875 0.666245 8.5625 0.666245C10.8125 0.666245 12.5625 2.40961 12.6875 4.65107V4.7756C12.6875 5.89633 12.25 6.89254 11.5 7.70196L11.4375 7.76422C11.375 7.82648 10.875 8.26232 7.3125 11.4377C7 11.6245 6.6875 11.7491 6.3125 11.7491ZM2.1875 7.51517C2.4375 7.76422 3.6875 8.6359 6 10.6283C6.1875 10.8151 6.4375 10.8151 6.625 10.6283C9 8.51138 10.375 7.32838 10.6875 7.07933L10.75 7.01707C11.375 6.39444 11.6875 5.58502 11.6875 4.7756V4.65107C11.625 2.90771 10.25 1.60019 8.5 1.60019C8.0625 1.60019 7.1875 1.9115 6.875 2.5964C6.75 2.84545 6.5 2.96997 6.25 2.96997C6 2.96997 5.75 2.84545 5.625 2.5964C5.3125 1.97377 4.5 1.60019 4 1.60019C2.3125 1.60019 0.875 2.96997 0.8125 4.65107V4.83786C0.8125 5.64728 1.1875 6.4567 1.75 7.01707L2.1875 7.51517Z" fill="#6C757D" fill-opacity="0.6"/>
</svg>
