<svg width="12" height="12" viewBox="0 0 12 12" fill="none" xmlns="http://www.w3.org/2000/svg">
<path d="M11.8368 10.3701L9.49991 8.04203C9.39444 7.93695 9.25146 7.87857 9.10145 7.87857H8.71939C9.36631 7.05431 9.75071 6.01755 9.75071 4.88973C9.75071 2.20678 7.56852 0.0328674 4.87536 0.0328674C2.18219 0.0328674 0 2.20678 0 4.88973C0 7.57268 2.18219 9.7466 4.87536 9.7466C6.00747 9.7466 7.04817 9.36365 7.87558 8.71919V9.0998C7.87558 9.24924 7.93417 9.39167 8.03965 9.49675L10.3765 11.8248C10.5969 12.0443 10.9531 12.0443 11.1711 11.8248L11.8345 11.164C12.0548 10.9445 12.0548 10.5895 11.8368 10.3701ZM4.87536 7.87857C3.2182 7.87857 1.87514 6.54294 1.87514 4.88973C1.87514 3.23887 3.21586 1.90089 4.87536 1.90089C6.53251 1.90089 7.87558 3.23653 7.87558 4.88973C7.87558 6.5406 6.53485 7.87857 4.87536 7.87857Z" fill="#495057" fill-opacity="0.5"/>
</svg>
